<?xml version="1.0" encoding="UTF-8"?>
<svg width="500px" height="155px" viewBox="0 0 500 155" version="1.1" xmlns="http://www.w3.org/2000/svg" xmlns:xlink="http://www.w3.org/1999/xlink">
    <!-- Generator: Sketch 51.1 (57501) - http://www.bohemiancoding.com/sketch -->
    <title>Artboard</title>
    <desc>Created with Sketch.</desc>
    <defs></defs>
    <g id="Artboard" stroke="none" stroke-width="1" fill="none" fill-rule="evenodd">
        <g id="Octicons-106" transform="translate(48.000000, 24.000000)" fill="#000000" fill-rule="nonzero">
            <path d="M76.875,0 C75.568125,0 74.1075,0.385714286 72.8775,1.08 C61.8075,7.86857143 34.59375,27.6171429 23.0625,30.8571429 C12.45375,30.8571429 0,36.0257143 0,50.1428571 C0,64.26 12.530625,69.4285714 23.0625,69.4285714 C25.36875,70.0457143 27.9825,71.2028571 30.75,72.5914286 L30.75,108 L46.125,108 L46.125,81.3857143 C56.42625,88.02 66.804375,95.5028571 72.8775,99.2057143 C74.1075,99.9 75.49125,100.285714 76.875,100.285714 C80.8725,100.285714 84.5625,97.0457143 84.5625,92.5714286 L84.5625,7.71428571 C84.5625,3.24 80.8725,0 76.875,0 Z M76.875,92.5714286 C73.95375,90.7971429 70.033125,88.0971429 65.34375,84.8571429 C64.11375,84.0085714 62.806875,83.16 61.5,82.2342857 L61.5,17.82 C62.73,16.9714286 63.883125,16.2771429 65.113125,15.4285714 C69.8025,12.2657143 74.030625,9.48857143 76.875,7.71428571 L76.875,92.5714286 Z M92.25,46.2857143 L123,46.2857143 L123,54 L92.25,54 L92.25,46.2857143 Z M92.25,61.7142857 L123,77.1428571 L123,84.8571429 L92.25,69.4285714 L92.25,61.7142857 Z M123,15.4285714 L123,23.1428571 L92.25,38.5714286 L92.25,30.8571429 L123,15.4285714 Z" id="Shape"></path>
        </g>
        <text id="VS-Jokes" font-family="HelveticaNeue-Bold, Helvetica Neue" font-size="60" font-weight="bold" fill="#000000">
            <tspan x="186" y="99">VS Jokes</tspan>
        </text>
    </g>
</svg>